<svg width="14" height="14" viewBox="0 0 14 14" fill="none" xmlns="http://www.w3.org/2000/svg">
<path d="M6.99984 13.2709C3.54067 13.2709 0.729004 10.4592 0.729004 7.00008C0.729004 3.54091 3.54067 0.729248 6.99984 0.729248C10.459 0.729248 13.2707 3.54091 13.2707 7.00008C13.2707 10.4592 10.459 13.2709 6.99984 13.2709ZM6.99984 1.60425C4.02484 1.60425 1.604 4.02508 1.604 7.00008C1.604 9.97508 4.02484 12.3959 6.99984 12.3959C9.97484 12.3959 12.3957 9.97508 12.3957 7.00008C12.3957 4.02508 9.97484 1.60425 6.99984 1.60425Z" fill="#6E717D"/>
<path d="M9.0415 7.4375H5.5415C5.30234 7.4375 5.104 7.23917 5.104 7C5.104 6.76083 5.30234 6.5625 5.5415 6.5625H9.0415C9.28067 6.5625 9.479 6.76083 9.479 7C9.479 7.23917 9.28067 7.4375 9.0415 7.4375Z" fill="#6E717D"/>
<path d="M6.7085 9.18751C6.59767 9.18751 6.48684 9.14667 6.39934 9.05917L4.64934 7.30917C4.48017 7.14001 4.48017 6.86001 4.64934 6.69084L6.39934 4.94084C6.5685 4.77167 6.8485 4.77167 7.01767 4.94084C7.18684 5.11001 7.18684 5.39001 7.01767 5.55917L5.57684 7.00001L7.01767 8.44084C7.18684 8.61001 7.18684 8.89001 7.01767 9.05917C6.93017 9.14667 6.81934 9.18751 6.7085 9.18751Z" fill="#6E717D"/>
</svg>
